<?xml version="1.0" encoding="UTF-8" standalone="no"?>
<!-- Generator: Adobe Illustrator 26.5.0, SVG Export Plug-In . SVG Version: 6.00 Build 0)  -->

<svg
   version="1.1"
   id="Layer_1"
   x="0px"
   y="0px"
   viewBox="0 0 2521 2911"
   style="enable-background:new 0 0 2521 2911;"
   xml:space="preserve"
   sodipodi:docname="logo.svg"
   inkscape:version="1.2.2 (b0a8486541, 2022-12-01)"
   inkscape:export-filename="README-logo.png"
   inkscape:export-xdpi="9.5200319"
   inkscape:export-ydpi="9.5200319"
   xmlns:inkscape="http://www.inkscape.org/namespaces/inkscape"
   xmlns:sodipodi="http://sodipodi.sourceforge.net/DTD/sodipodi-0.dtd"
   xmlns="http://www.w3.org/2000/svg"
   xmlns:svg="http://www.w3.org/2000/svg"><defs
   id="defs7637"><rect
     x="657.30321"
     y="552.81761"
     width="1347.8355"
     height="342.73218"
     id="rect3124" /><marker
     style="overflow:visible"
     id="marker2628"
     refX="0"
     refY="0"
     orient="auto-start-reverse"
     inkscape:stockid="Arrow4"
     markerWidth="5"
     markerHeight="6"
     viewBox="0 0 5 6"
     inkscape:isstock="true"
     inkscape:collect="always"
     preserveAspectRatio="xMidYMid"><path
       style="fill:context-stroke;fill-rule:evenodd;stroke:none"
       d="m 1,0 -3,3 h -2 l 3,-3 -3,-3 h 2 z"
       id="path2626" /></marker><rect
     x="745.93505"
     y="1568.0338"
     width="169.49032"
     height="110.20333"
     id="rect17351" /><marker
     style="overflow:visible"
     id="Arrow4"
     refX="0"
     refY="0"
     orient="auto-start-reverse"
     inkscape:stockid="Arrow4"
     markerWidth="3"
     markerHeight="3.5999999"
     viewBox="0 0 5 6"
     inkscape:isstock="true"
     inkscape:collect="always"
     preserveAspectRatio="xMidYMid"><path
       style="fill:context-stroke;fill-rule:evenodd;stroke:none"
       d="m 1,0 -3,3 h -2 l 3,-3 -3,-3 h 2 z"
       id="path1741" /></marker><rect
     x="1103.488"
     y="2160.1107"
     width="495.97493"
     height="286.35079"
     id="rect59887" /><rect
     x="548.28856"
     y="690.57197"
     width="1599.5915"
     height="260.73238"
     id="rect13534" /><rect
     x="548.28856"
     y="690.57197"
     width="1599.5915"
     height="260.73238"
     id="rect66909" /><clipPath
     id="clip-19"><path
       clip-rule="nonzero"
       d="m 301,41.4375 h 2 v 433.41016 h -2 z m 0,0"
       id="path6045" /></clipPath><clipPath
     id="clip-14"><path
       clip-rule="nonzero"
       d="m 64,41.4375 h 2 v 433.41016 h -2 z m 0,0"
       id="path6030" /></clipPath><clipPath
     id="clip-9"><path
       clip-rule="nonzero"
       d="M 41.152344,456 H 563.09375 v 3 H 41.152344 Z m 0,0"
       id="path6015" /></clipPath><clipPath
     id="clip-158"><path
       clip-rule="nonzero"
       d="m 460,199.75391 h 2 v 105.42187 h -2 z m 0,0"
       id="path7626" /></clipPath><clipPath
     id="clip-9-3"><path
       clip-rule="nonzero"
       d="M 41.152344,456 H 563.09375 v 3 H 41.152344 Z m 0,0"
       id="path6015-6" /></clipPath><clipPath
     id="clip-9-35"><path
       clip-rule="nonzero"
       d="M 41.152344,456 H 563.09375 v 3 H 41.152344 Z m 0,0"
       id="path6015-62" /></clipPath><clipPath
     id="clip-158-3"><path
       clip-rule="nonzero"
       d="m 460,199.75391 h 2 v 105.42187 h -2 z m 0,0"
       id="path7626-6" /></clipPath><marker
     style="overflow:visible"
     id="marker2628-5"
     refX="0"
     refY="0"
     orient="auto-start-reverse"
     inkscape:stockid="Arrow4"
     markerWidth="5"
     markerHeight="6"
     viewBox="0 0 5 6"
     inkscape:isstock="true"
     inkscape:collect="always"
     preserveAspectRatio="xMidYMid"><path
       style="fill:context-stroke;fill-rule:evenodd;stroke:none"
       d="m 1,0 -3,3 h -2 l 3,-3 -3,-3 h 2 z"
       id="path2626-6" /></marker><rect
     x="657.30322"
     y="552.81763"
     width="1347.8354"
     height="342.73218"
     id="rect3124-9" /></defs><sodipodi:namedview
   id="namedview7635"
   pagecolor="#ffffff"
   bordercolor="#000000"
   borderopacity="0.25"
   inkscape:showpageshadow="2"
   inkscape:pageopacity="0.0"
   inkscape:pagecheckerboard="0"
   inkscape:deskcolor="#d1d1d1"
   showgrid="false"
   inkscape:zoom="0.25806862"
   inkscape:cx="197.62186"
   inkscape:cy="1435.6647"
   inkscape:window-width="1854"
   inkscape:window-height="1011"
   inkscape:window-x="0"
   inkscape:window-y="0"
   inkscape:window-maximized="1"
   inkscape:current-layer="g7632" />
<style
   type="text/css"
   id="style6208">
	.st0{fill:#36A85D;}
	.st1{fill:#22834A;}
	.st2{fill:#E6B35A;}
	.st3{opacity:0.94;}
	.st4{fill:#FFFFFF;}
	.st5{fill:none;stroke:#000000;stroke-width:2.5733;stroke-miterlimit:10;}
</style>
<g
   id="g7632">
	<polygon
   class="st0"
   points="1260.5,2833.8 2453.1,2145.2 2453.1,767.6 1260.5,78.9 67.6,767.6 67.6,2145.2 "
   id="polygon6210"
   transform="translate(-35.809954,19.594459)"
   style="fill:#ffffff;stroke:#36617b;stroke-opacity:1;fill-opacity:1" /><text
   xml:space="preserve"
   id="text3122-1"
   style="font-size:192px;white-space:pre;shape-inside:url(#rect3124-9);display:inline;fill:#fb6f00;fill-opacity:1;stroke:#fb6f00;stroke-width:15;stroke-dasharray:none;stroke-opacity:1"
   transform="translate(537.46003,5.6824116)"><tspan
     x="657.30273"
     y="727.51439"
     id="tspan2173">Volcano</tspan></text><path
   style="fill:#ff0000;fill-opacity:1;stroke:#36617b;stroke-width:15.828;stroke-opacity:1;marker-end:url(#marker2628-5);stroke-dasharray:none"
   d="m 1436.3515,2016.3405 179.5294,-224.1662"
   id="path2433-2" /><g
   id="g10482"
   transform="matrix(6.1729223,0,0,5.7047724,-1745.9774,700.20434)"><g
     clip-path="url(#clip-158)"
     id="g8440"><path
       fill="none"
       stroke-width="1.06698"
       stroke-linecap="butt"
       stroke-linejoin="round"
       stroke="#000000"
       stroke-opacity="1"
       stroke-miterlimit="10"
       d="M 461.1875,305.17969 V 199.75391"
       id="path8438" /></g></g><g
   clip-path="url(#clip-9-3)"
   id="g6097-7"
   style="fill:#000000;stroke:#333333;stroke-width:30;stroke-dasharray:none;stroke-opacity:1"
   transform="matrix(1.7319633,0,0,1.3333333,700.66845,1826.3518)"><path
     fill="none"
     stroke-width="1.066978"
     stroke-linecap="butt"
     stroke-linejoin="round"
     stroke="rgb(92.156863%, 92.156863%, 92.156863%)"
     stroke-opacity="1"
     stroke-miterlimit="10"
     d="M 41.152344,457.52734 H 563.09375"
     id="path6095-5"
     style="fill:#000000;stroke:#333333;stroke-width:30;stroke-dasharray:none;stroke-opacity:1" /></g><g
   clip-path="url(#clip-9-35)"
   id="g6097-9"
   style="fill:#000000;stroke:#333333;stroke-width:30;stroke-dasharray:none;stroke-opacity:1"
   transform="matrix(1.6483433,0,0,1.3333333,719.59017,1458.1202)"><path
     fill="none"
     stroke-width="1.066978"
     stroke-linecap="butt"
     stroke-linejoin="round"
     stroke="rgb(92.156863%, 92.156863%, 92.156863%)"
     stroke-opacity="1"
     stroke-miterlimit="10"
     d="M 41.152344,457.52734 H 563.09375"
     id="path6095-1"
     style="fill:#000000;stroke:#333333;stroke-width:30;stroke-dasharray:none;stroke-opacity:1" /></g><ellipse
   style="fill:#000000;fill-opacity:1;stroke:#36617b;stroke-width:3.3;stroke-opacity:1"
   id="path15169-3"
   cx="1826.7692"
   cy="1611.0565"
   rx="14.563522"
   ry="13.398101" /><ellipse
   style="fill:#000000;fill-opacity:1;stroke:#36617b;stroke-width:3.3;stroke-opacity:1"
   id="path15169-6"
   cx="1849.6777"
   cy="1461.0265"
   rx="14.563522"
   ry="13.398101" /><ellipse
   style="fill:#000000;fill-opacity:1;stroke:#36617b;stroke-width:3.3;stroke-opacity:1"
   id="path15169-7"
   cx="1815.4561"
   cy="1464.5203"
   rx="14.563522"
   ry="13.398101" /><ellipse
   style="fill:#000000;fill-opacity:1;stroke:#36617b;stroke-width:3.3;stroke-opacity:1"
   id="path15169-5"
   cx="1780.9449"
   cy="1402.5869"
   rx="14.563522"
   ry="13.398101" /><ellipse
   style="fill:#000000;fill-opacity:1;stroke:#36617b;stroke-width:3.3;stroke-opacity:1"
   id="path15169-35"
   cx="2089.2949"
   cy="1113.7604"
   rx="14.563522"
   ry="13.398101" /><ellipse
   style="fill:#000000;fill-opacity:1;stroke:#36617b;stroke-width:3.3;stroke-opacity:1"
   id="path15169-62"
   cx="1929.4922"
   cy="1338.4186"
   rx="14.563522"
   ry="13.398101" /><ellipse
   style="fill:#000000;fill-opacity:1;stroke:#36617b;stroke-width:3.3;stroke-opacity:1"
   id="path15169-9"
   cx="1636"
   cy="1253.0631"
   rx="14.563522"
   ry="13.398101" /><ellipse
   style="fill:#000000;fill-opacity:1;stroke:#36617b;stroke-width:3.3;stroke-opacity:1"
   id="path15169-1"
   cx="1592.4905"
   cy="1204.8591"
   rx="14.563522"
   ry="13.398101" /><ellipse
   style="fill:#000000;fill-opacity:1;stroke:#36617b;stroke-width:3.3;stroke-opacity:1"
   id="path15169-2"
   cx="1791.3251"
   cy="1571.5688"
   rx="14.563522"
   ry="13.398101" /><ellipse
   style="fill:#000000;fill-opacity:1;stroke:#36617b;stroke-width:3.3;stroke-opacity:1"
   id="path15169-70"
   cx="1766.7673"
   cy="1504.4636"
   rx="14.563522"
   ry="13.398101" /><ellipse
   style="fill:#000000;fill-opacity:1;stroke:#36617b;stroke-width:3.3;stroke-opacity:1"
   id="path15169-93"
   cx="2075.9634"
   cy="1178.6086"
   rx="14.563522"
   ry="13.398101" /><ellipse
   style="fill:#000000;fill-opacity:1;stroke:#36617b;stroke-width:3.3;stroke-opacity:1"
   id="path15169-60"
   cx="1977.3708"
   cy="1264.4559"
   rx="14.563522"
   ry="13.398101" /><ellipse
   style="fill:#000000;fill-opacity:1;stroke:#36617b;stroke-width:3.3;stroke-opacity:1"
   id="path15169-626"
   cx="1820.8739"
   cy="1513.5996"
   rx="14.563522"
   ry="13.398101" /><ellipse
   style="fill:#000000;fill-opacity:1;stroke:#36617b;stroke-width:3.3;stroke-opacity:1"
   id="path15169-18"
   cx="1800.3887"
   cy="1537.991"
   rx="14.563522"
   ry="13.398101" /><ellipse
   style="fill:#000000;fill-opacity:1;stroke:#36617b;stroke-width:3.3;stroke-opacity:1"
   id="path15169-79"
   cx="1838.0028"
   cy="1565.1744"
   rx="14.563522"
   ry="13.398101" /><ellipse
   style="fill:#000000;fill-opacity:1;stroke:#36617b;stroke-width:3.3;stroke-opacity:1"
   id="path15169-20"
   cx="2001.3788"
   cy="1114.9828"
   rx="14.563522"
   ry="13.398101" /><ellipse
   style="fill:#000000;fill-opacity:1;stroke:#36617b;stroke-width:3.3;stroke-opacity:1"
   id="path15169-23"
   cx="1994.3116"
   cy="1188.1207"
   rx="14.563522"
   ry="13.398101" /><ellipse
   style="fill:#000000;fill-opacity:1;stroke:#36617b;stroke-width:3.3;stroke-opacity:1"
   id="path15169-75"
   cx="1929.051"
   cy="1225.3444"
   rx="14.563522"
   ry="13.398101" /><ellipse
   style="fill:#000000;fill-opacity:1;stroke:#36617b;stroke-width:3.3;stroke-opacity:1"
   id="path15169-92"
   cx="1876.42"
   cy="1294.692"
   rx="14.563522"
   ry="13.398101" /><ellipse
   style="fill:#000000;fill-opacity:1;stroke:#36617b;stroke-width:3.3;stroke-opacity:1"
   id="path15169-28"
   cx="1882.5685"
   cy="1379.1721"
   rx="14.563522"
   ry="13.398101" /><ellipse
   style="fill:#000000;fill-opacity:1;stroke:#36617b;stroke-width:3.3;stroke-opacity:1"
   id="path15169-97"
   cx="1857.0125"
   cy="1508.1599"
   rx="14.563522"
   ry="13.398101" /><ellipse
   style="fill:#000000;fill-opacity:1;stroke:#36617b;stroke-width:3.3;stroke-opacity:1"
   id="path15169-36"
   cx="1784.1927"
   cy="1605.3059"
   rx="14.563522"
   ry="13.398101" /><ellipse
   style="fill:#000000;fill-opacity:1;stroke:#36617b;stroke-width:3.3;stroke-opacity:1"
   id="path15169-12"
   cx="1741.9998"
   cy="1454.4222"
   rx="14.563522"
   ry="13.398101" /><ellipse
   style="fill:#000000;fill-opacity:1;stroke:#36617b;stroke-width:3.3;stroke-opacity:1"
   id="path15169-931"
   cx="1752.5245"
   cy="1279.574"
   rx="14.563522"
   ry="13.398101" /><ellipse
   style="fill:#000000;fill-opacity:1;stroke:#36617b;stroke-width:3.3;stroke-opacity:1"
   id="path15169-94"
   cx="1669.455"
   cy="1357.9418"
   rx="14.563522"
   ry="13.398101" /><ellipse
   style="fill:#000000;fill-opacity:1;stroke:#36617b;stroke-width:3.3;stroke-opacity:1"
   id="path15169-78"
   cx="1669.021"
   cy="1203.9983"
   rx="14.563522"
   ry="13.398101" /><g
   clip-path="url(#clip-9)"
   id="g6097"
   style="fill:#000000;stroke:#333333;stroke-width:30;stroke-dasharray:none;stroke-opacity:1"
   transform="matrix(1.3333333,0,0,1.3333333,1414.2281,1037.4968)"><path
     fill="none"
     stroke-width="1.066978"
     stroke-linecap="butt"
     stroke-linejoin="round"
     stroke="rgb(92.156863%, 92.156863%, 92.156863%)"
     stroke-opacity="1"
     stroke-miterlimit="10"
     d="M 41.152344,457.52734 H 563.09375"
     id="path6095"
     style="fill:#000000;stroke:#333333;stroke-width:30;stroke-dasharray:none;stroke-opacity:1" /></g><g
   clip-path="url(#clip-14)"
   id="g6117"
   style="fill:#000000;stroke:#333333;stroke-width:42.755;stroke-dasharray:none;stroke-opacity:1"
   transform="matrix(1.3333333,0,0,1.3333333,1382.7938,1016.6836)"><path
     fill="none"
     stroke-width="1.066978"
     stroke-linecap="butt"
     stroke-linejoin="round"
     stroke="rgb(92.156863%, 92.156863%, 92.156863%)"
     stroke-opacity="1"
     stroke-miterlimit="10"
     d="M 64.875,474.84766 V 41.4375"
     id="path6115"
     style="fill:#000000;stroke:#333333;stroke-width:42.755;stroke-dasharray:none;stroke-opacity:1" /></g><g
   clip-path="url(#clip-19)"
   id="g6137"
   style="fill:#000000;stroke:#333333;stroke-width:30;stroke-dasharray:none;stroke-opacity:1"
   transform="matrix(1.3333333,0,0,1.3333333,1415.2489,1033.6119)"><path
     fill="none"
     stroke-width="1.066978"
     stroke-linecap="butt"
     stroke-linejoin="round"
     stroke="rgb(74.509804%, 74.509804%, 74.509804%)"
     stroke-opacity="1"
     stroke-miterlimit="10"
     d="M 302.12109,474.84766 V 41.4375"
     id="path6135"
     style="fill:#000000;stroke:#333333;stroke-width:30;stroke-dasharray:none;stroke-opacity:1" /></g><g
   fill="#000000"
   fill-opacity="1"
   id="g7001"
   transform="matrix(9.3320492,0,0,7.4819746,1341.2848,-620.11647)"
   style="fill:#fb6f00;fill-opacity:1;stroke:#fb6f00;stroke-width:1.00012;stroke-dasharray:none;stroke-opacity:1"><g
     id="use6999"
     transform="translate(11.239258,261.64453)"
     style="fill:#fb6f00;fill-opacity:1;stroke:#fb6f00;stroke-width:1.00012;stroke-dasharray:none;stroke-opacity:1"><path
       d="m -0.6875,-6.25 c 0,-0.101562 -0.007812,-0.195312 -0.03125,-0.28125 -0.019531,-0.082031 -0.046875,-0.148438 -0.078125,-0.203125 h 0.765625 c 0.03125,0.0625 0.0625,0.15625 0.09375,0.28125 0.03125,0.125 0.046875,0.277344 0.046875,0.453125 0,0.8125 -0.46875,1.21875 -1.40625,1.21875 H -5.09375 v 2.5 H 0 v 0.953125 H -5.09375 V -0.125 h -0.421875 l -0.375,-0.796875 v -5.96875 h 0.796875 v 1.15625 h 3.734375 c 0.25,0 0.429687,-0.046875 0.53125,-0.140625 0.09375,-0.101562 0.140625,-0.226562 0.140625,-0.375 z m 0,0"
       id="path11258"
       style="fill:#fb6f00;fill-opacity:1;stroke:#fb6f00;stroke-width:1.00012;stroke-dasharray:none;stroke-opacity:1" /></g></g><g
   id="g39917"
   transform="matrix(23.659594,0,0,30.354373,-6637.4899,1020.8742)" />
	<path
   class="st1"
   d="M2521,2183.6V727.7l-100.5-58l-953.1-550.4L1260.5,0l-206.9,119.4L100.5,669.8L0,727.7v1455.5l100.5,58   l965.1,557.2l195.2,112.5l195.2-112.5l965.1-557.2L2521,2183.6z M100.5,2129V789.2L274.1,689l986.4-569.6l0,0l991.2,572.3   l169.1,97.4V2129l-1160.3,669.8L100.5,2129z"
   id="path6212"
   style="fill:#36617b;fill-opacity:1" />
	<path
   class="st2"
   d="M1258.8,2171.6c1-1,2.1-2.1,3.1-3.1h-1C1260.5,2169.5,1259.8,2170.6,1258.8,2171.6z"
   id="path6214" />
	
	
	
	
	
	
	
	
	
	
	
	
	
	
	
	
	
	
	
	
	
	
	
	
	
	
	
	
	
	
	
	
	
	
	
	
	
	
	
	
	
	
	
	
	
	
	
	
	
	
	
	
	
	
	
	
	
	
	
	
	
	
	
	
	
	
	
	
	
	
	
	
	
	
	
	
	
	
	
	
	
	
	
	
	
	
	
	
	
	
	
	
	
	
	
	
	
	
	
	
	
	
	
	
	
	
	
	
	
	
	
	
	
	
	
	
	
	
	
	
	
	
	
	
	
	
	
	
	
	
	
	
	
	
	
	
	
	
	
	
	
	
	
	
	
	
	
	
	
	
	
	
	
	
	
	
	
	
	
	
	
	
	
	
	
	
	
	
	
	
	
	
	
	
	
	
	
	
	
	
	
	
	
	
	
	
	
	
	
	
	
	
	
	
	
	
	
	
	
	
	
	
	
	
	
	
	
	
	
	
	
	
	
	
	
	
	
	
	
	
	
	
	
	
	
	
	
	
	
	
	
	
	
	
	
	
	
	
	
	
	
	
	
	
	
	
	
	
	
	
	
	
	
	
	
	
	
	
	
	
	
	
	
	
	
	
	
	
	
	
	
	
	
	
	
	
	
	
	
	
	
	
	
	
	
	
	
	
	
	
	
	
	
	
	
	
	
	
	
	
	
	
	
	
	
	
	
	
	
	
	
	
	
	
	
	
	
	
	
	
	
	
	
	
	
	
	
	
	
	
	
	
	
	
	
	
	
	
	
	
	
	
	
	
	
	
	
	
	
	
	
	
	
	
	
	
	
	
	
	
	
	
	
	
	
	
	
	
<text
   xml:space="preserve"
   id="text13532"
   style="font-size:192px;white-space:pre;shape-inside:url(#rect13534);display:inline;fill:#36617b;fill-opacity:1;stroke:#808080;stroke-width:3.3;stroke-dasharray:none;stroke-opacity:1"
   transform="translate(90.69242,-115.01287)"><tspan
     x="548.28906"
     y="865.2683"
     id="tspan2175">
</tspan></text><text
   xml:space="preserve"
   style="font-size:85.3333px;fill:#d45500;stroke:#0a0a0a;stroke-width:0.9;stroke-dasharray:none"
   x="2538.8743"
   y="1925.7842"
   id="text65711"><tspan
     sodipodi:role="line"
     id="tspan65709" /></text><text
   xml:space="preserve"
   id="text66907"
   style="font-size:192px;white-space:pre;shape-inside:url(#rect66909);display:inline;fill:#d95f02;fill-opacity:1;stroke:#d95f02;stroke-width:3.3;stroke-dasharray:none;stroke-opacity:1"
   transform="translate(634.93601,-13.731735)" /><ellipse
   style="fill:#000000;fill-opacity:1;stroke:#36617b;stroke-width:3.3;stroke-opacity:1"
   id="path15169"
   cx="1561.8748"
   cy="1136.5219"
   rx="14.563522"
   ry="13.398101" /><path
   fill="none"
   stroke-width="5.07052"
   stroke-linecap="butt"
   stroke-linejoin="round"
   stroke="#000000"
   stroke-opacity="1"
   stroke-miterlimit="10"
   d="m 835.60978,2057.5839 1.53204,-0.035 1.53198,-0.017 1.53204,-0.034 1.51164,-0.017 3.06402,-0.035 1.51165,-0.017 h 6.10764 l 3.06408,0.035 1.51159,0.017 3.06407,0.035 1.53204,0.034 1.51159,0.035 1.53203,0.017 1.53204,0.035 1.51159,0.035 1.53204,0.035 1.53203,0.05 1.53204,0.017 1.51159,0.035 3.06407,0.067 1.51159,0.017 3.06408,0.035 h 4.57566 l 1.53204,-0.017 1.51159,-0.017 3.06407,-0.067 1.53204,-0.051 1.51159,-0.05 3.06407,-0.1348 1.51159,-0.084 1.53204,-0.084 3.06407,-0.2026 1.51159,-0.101 3.06407,-0.2362 1.51159,-0.1348 3.06408,-0.2699 1.51159,-0.1347 1.53203,-0.152 1.53204,-0.1348 1.53199,-0.152 1.51164,-0.1516 1.53203,-0.1347 1.53199,-0.152 1.51164,-0.1348 3.06402,-0.2699 1.53204,-0.1179 1.51164,-0.1347 1.53199,-0.1011 1.53203,-0.1179 1.51164,-0.1011 4.59606,-0.3036 1.51159,-0.1179 3.06408,-0.2362 1.51159,-0.1347 1.53203,-0.152 1.53204,-0.1857 1.53204,-0.2026 1.51159,-0.2194 1.53203,-0.2699 1.53204,-0.2867 1.51159,-0.3373 1.53204,-0.371 1.53203,-0.4219 1.53204,-0.4555 1.51159,-0.5061 1.53204,-0.5398 1.53203,-0.5736 1.51159,-0.6411 1.53204,-0.6579 1.53204,-0.6916 1.53203,-0.7254 1.51159,-0.7423 3.06408,-1.552 1.51159,-0.7929 1.53203,-0.8097 1.53204,-0.7929 1.53204,-0.8097 1.51159,-0.7929 1.53203,-0.776 1.53204,-0.7591 1.51159,-0.7423 1.53204,-0.7254 3.06407,-1.3833 1.51159,-0.6579 3.06407,-1.2821 1.5116,-0.6242 3.0641,-1.2484 1.5116,-0.6241 1.532,-0.641 1.5321,-0.6748 1.5319,-0.6917 1.5117,-0.7254 1.532,-0.7591 1.532,-0.8098 1.5116,-0.8772 1.5321,-0.9278 1.532,-0.9784 1.532,-1.046 1.5116,-1.1134 1.532,-1.164 1.5321,-1.2483 1.5116,-1.3158 1.532,-1.3834 1.532,-1.4507 1.5321,-1.5015 1.5116,-1.5519 1.532,-1.6364 1.532,-1.6701 1.5116,-1.7038 1.5321,-1.7545 1.532,-1.7882 1.532,-1.8219 1.5116,-1.8219 3.0641,-3.7113 1.5116,-1.8726 1.532,-1.8556 1.5321,-1.8388 1.532,-1.8557 1.5116,-1.805 1.532,-1.8051 1.5321,-1.7713 1.5115,-1.7544 1.5321,-1.7207 1.532,-1.7039 1.5321,-1.6701 1.5115,-1.6532 1.5321,-1.6195 1.532,-1.6026 1.5116,-1.5857 1.532,-1.5858 1.5321,-1.552 1.532,-1.5689 1.5116,-1.552 3.0641,-3.1377 1.5116,-1.5858 1.532,-1.6026 1.532,-1.6195 1.5321,-1.6532 1.5116,-1.6532 3.064,-3.4077 1.5116,-1.7376 1.5321,-1.7713 3.064,-3.6101 1.5116,-1.8388 3.0641,-3.7113 1.5116,-1.8894 3.064,-3.7788 1.5117,-1.9063 1.532,-1.8894 3.064,-3.8125 1.5117,-1.8894 1.5319,-1.8725 1.5321,-1.8894 1.5116,-1.8557 1.532,-1.8556 1.532,-1.8389 1.5321,-1.805 1.5116,-1.805 1.532,-1.7714 1.532,-1.7375 1.5116,-1.7207 1.5321,-1.687 1.532,-1.6532 1.532,-1.6026 1.5116,-1.5689 1.5321,-1.5183 1.532,-1.4845 1.5116,-1.434 1.532,-1.3664 1.5321,-1.3327 1.532,-1.2652 1.5116,-1.2315 1.532,-1.164 1.5321,-1.1303 1.5116,-1.0965 1.532,-1.029 1.532,-0.9954 1.5321,-0.9447 1.5116,-0.9278 1.532,-0.8941 1.532,-0.8603 1.5116,-0.8266 1.5321,-0.7929 1.532,-0.776 1.532,-0.7591 1.5116,-0.7254 1.5321,-0.6917 1.532,-0.6748 1.5116,-0.641 1.532,-0.5905 1.5321,-0.5735 1.532,-0.523 1.5116,-0.4723 1.532,-0.4047 1.5321,-0.3541 1.5116,-0.2699 1.532,-0.1857 1.532,-0.1184 h 1.532 l 1.5117,0.084 1.532,0.2193 1.532,0.3542 1.5116,0.4892 1.5321,0.6073 1.5319,0.7591 1.5117,0.8941 1.532,1.0628 1.532,1.2146 1.532,1.3665 1.5117,1.5182 1.532,1.6532 1.532,1.7714 1.5116,1.9231 1.532,2.0581 1.5321,2.1425 1.532,2.2605 1.5116,2.328 1.532,2.3955 1.5321,2.463 1.5116,2.5304 1.532,2.5473 3.0641,5.1621 1.5116,2.5979 3.064,5.1959 1.5116,2.581 1.5321,2.5642 1.532,2.5474 1.532,2.5304 1.5116,2.5136 1.5321,2.5136 1.532,2.4966 1.5116,2.4968 1.532,2.4967 1.5321,2.4798 1.532,2.5136 4.5757,7.5576 1.5115,2.5473 1.5321,2.5642 3.0641,5.1621 1.5115,2.5979 3.0641,5.1621 1.5116,2.5642 1.532,2.5473 1.5321,2.4967 1.532,2.4799 1.5116,2.4123 1.532,2.3449 1.5321,2.2774 1.5116,2.1931 1.532,2.1256 1.532,2.0243 1.532,1.9063 1.5117,1.8219 1.532,1.7038 1.532,1.6026 1.5116,1.4846 1.5321,1.4001 1.532,1.2653 1.532,1.164 1.5116,1.0796 1.532,0.9785 1.5321,0.9109 1.5116,0.8267 1.532,0.7422 1.532,0.6917 1.5117,0.6241 1.5319,0.5905 1.5321,0.5398 1.532,0.5229 1.5116,0.5061 1.532,0.4893 1.5321,0.4723 1.5116,0.4892 3.064,0.9785 1.5321,0.5229 1.5116,0.523 1.532,0.5736 1.532,0.5904 1.5116,0.6073 1.5321,0.6579 1.532,0.6748 1.532,0.7085 1.5116,0.7423 1.5321,0.7591 1.532,0.8098 1.5116,0.8097 1.532,0.8266 3.0641,1.7207 1.5116,0.8773 3.0641,1.7544 1.5116,0.8603 1.532,0.8604 1.532,0.8435 1.5321,0.8266 1.5116,0.7929 1.532,0.776 1.532,0.7591 1.5116,0.7085 1.5321,0.6748 1.532,0.641 1.532,0.6074 1.5116,0.5735 1.5321,0.5399 1.532,0.5061 1.5116,0.4723 3.0641,0.8435 1.5319,0.3878 1.5117,0.3541 1.532,0.3542 1.532,0.3373 1.5117,0.3204 1.532,0.3036 3.064,0.6411 1.5117,0.3036 1.5319,0.3204 1.5321,0.3373 1.5116,0.3373 1.532,0.3373 1.532,0.3709 1.5117,0.3542 3.064,0.776 1.532,0.4046 1.5116,0.4047 3.0641,0.8434 1.5116,0.4386 1.532,0.422 1.5321,0.4555 1.532,0.4386 1.5116,0.4554 1.532,0.4386 1.5321,0.4555 1.5116,0.4555 3.064,0.8773 1.5321,0.4554 1.5116,0.4219 1.532,0.4386 1.532,0.422 1.5116,0.4219 1.5321,0.4047 3.064,0.7759 1.5116,0.371 1.5321,0.371 1.532,0.3372 1.5116,0.3373 3.0641,0.6073 1.532,0.2699 1.5116,0.2699 3.0641,0.4724 1.5115,0.2026 1.5321,0.1857 1.532,0.1688 1.5321,0.152 1.5115,0.1348 1.5321,0.1179 1.532,0.101 1.5116,0.084 3.0641,0.1348 1.532,0.05 1.5116,0.035 3.064,0.035 1.5117,0.017 1.532,-0.017 h 1.532 l 1.532,-0.017 1.5117,-0.017 3.064,-0.067 1.5116,-0.035 4.5961,-0.101 1.5116,-0.035 3.0641,-0.067 1.5115,-0.017 1.5321,-0.035 1.532,-0.017 1.5116,-0.017 h 6.1077 l 3.0641,0.034 1.5116,0.035 1.532,0.017 3.0641,0.067 1.5116,0.051 3.064,0.067 1.5116,0.051 1.5321,0.035 1.532,0.05 1.532,0.035 1.5116,0.035 1.5321,0.051 1.532,0.035 1.5116,0.035 1.532,0.017 3.0641,0.067 1.5116,0.017 3.0641,0.035 1.5116,0.017 3.064,0.035 h 1.5321 l 1.5116,0.017 h 1.532 l 1.532,0.017 h 4.5757 l 1.532,0.017 h 70.1874"
   id="path7944"
   style="stroke:#00fada;stroke-width:12.871;stroke-dasharray:none;stroke-opacity:1" /><path
   fill="none"
   stroke-width="5.07052"
   stroke-linecap="butt"
   stroke-linejoin="round"
   stroke="#000000"
   stroke-opacity="1"
   stroke-miterlimit="10"
   d="m 855.89672,2432.7106 h 131.24394 l 1.53203,-0.017 h 4.57567 l 1.53203,-0.017 h 1.51159 l 1.53204,-0.017 1.53204,-0.035 1.51154,-0.034 1.5321,-0.035 3.0641,-0.1347 1.5115,-0.084 3.0641,-0.2026 1.5116,-0.1347 4.5961,-0.4047 1.5116,-0.1179 1.532,-0.1179 1.532,-0.084 1.5117,-0.05 1.532,-0.035 1.532,0.017 1.532,0.035 1.5117,0.067 1.532,0.1011 1.532,0.1179 1.5116,0.1347 4.5961,0.4047 1.5116,0.1183 3.0641,0.2026 1.5115,0.067 1.5321,0.067 1.532,0.051 1.5321,0.035 1.5115,0.034 3.0641,0.035 h 6.1077 l 1.5116,-0.017 3.0641,-0.035 1.5116,-0.034 3.064,-0.1011 1.5321,-0.067 1.5116,-0.084 1.532,-0.1011 1.532,-0.1183 1.5116,-0.1348 3.0641,-0.2699 1.5116,-0.1347 3.0641,-0.2699 1.532,-0.1011 1.5116,-0.084 3.0641,-0.1011 1.5116,-0.017 1.532,-0.017 h 1.532 l 1.5321,-0.017 1.5116,-0.017 1.532,-0.05 1.532,-0.067 1.5116,-0.1183 1.5321,-0.1516 1.532,-0.2025 1.532,-0.2363 1.5116,-0.3035 1.5321,-0.3542 1.5319,-0.4046 1.5117,-0.4555 1.532,-0.5061 1.532,-0.5567 1.532,-0.6073 1.5117,-0.6579 3.064,-1.3159 1.5117,-0.6241 1.5319,-0.5905 1.5321,-0.5061 1.532,-0.4219 1.5116,-0.3036 1.532,-0.1857 1.5321,-0.067 1.5116,0.067 1.532,0.1516 1.532,0.2362 1.5321,0.2699 1.5116,0.2868 1.532,0.253 1.532,0.2194 1.5116,0.1521 1.5321,0.067 1.532,-0.035 1.532,-0.1179 1.5116,-0.2363 1.5321,-0.3036 1.532,-0.3882 1.5116,-0.4723 1.532,-0.5399 1.5321,-0.6241 1.532,-0.7086 1.5116,-0.8097 1.532,-0.9278 1.5321,-1.0628 1.5116,-1.2315 1.532,-1.4002 1.532,-1.5689 1.5116,-1.7713 1.5321,-1.94 1.532,-2.1424 1.532,-2.2943 1.5116,-2.4292 1.5321,-2.5473 1.532,-2.6148 1.5116,-2.6148 1.532,-2.598 1.5321,-2.4967 1.532,-2.3786 1.5116,-2.2268 1.532,-2.0581 1.5321,-1.8894 1.5115,-1.7376 1.5321,-1.6026 1.532,-1.5351 1.532,-1.4677 1.5116,-1.5014 1.5321,-1.5688 1.532,-1.6701 1.5116,-1.822 1.532,-1.9737 1.532,-2.1256 1.5321,-2.2943 1.5116,-2.4629 1.532,-2.581 1.532,-2.6992 1.5117,-2.8004 1.532,-2.9184 1.532,-3.0028 1.532,-3.0872 1.5116,-3.1883 1.5321,-3.2896 1.532,-3.4077 1.5116,-3.5257 1.532,-3.6439 1.5321,-3.7956 1.532,-3.9644 1.5116,-4.133 1.532,-4.3693 1.5321,-4.6391 1.5115,-4.926 1.5321,-5.2802 1.532,-5.6682 1.5321,-6.1068 1.5115,-6.5454 1.5321,-6.9841 1.532,-7.4394 1.5116,-7.7938 1.532,-8.1143 1.5321,-8.2999 1.532,-8.3336 1.5116,-8.2493 1.532,-8.0468 1.5321,-7.7263 1.5116,-7.3552 1.532,-6.9333 1.532,-6.4949 1.5321,-6.1068 1.5116,-5.7525 1.532,-5.4658 1.532,-5.2802 1.5116,-5.1789 1.5321,-5.1453 1.532,-5.0946 1.5116,-5.0778 1.532,-5.0271 1.5321,-4.926 1.532,-4.7572 1.5116,-4.538 1.532,-4.268 1.5321,-3.9137 1.5116,-3.5933 1.532,-3.2895 1.532,-3.0197 1.532,-2.7835 1.5117,-2.5979 1.532,-2.463 1.532,-2.328 1.5116,-2.1931 1.5321,-2.0243 1.532,-1.7545 1.532,-1.3495 1.5116,-0.8435 1.532,-0.1689 1.5321,0.6411 1.5116,1.5689 1.532,2.6148 1.532,3.6944 1.5321,4.8079 1.5115,5.9044 1.5321,6.9165 1.532,7.9119 1.5116,8.6372 1.532,9.194 1.5321,9.5988 1.532,9.835 1.5116,9.9193 1.532,9.8688 1.5321,9.7506 1.5116,9.4976 1.532,9.2277 1.532,8.8903 1.5321,8.4855 1.5116,8.1311 1.532,7.7432 1.532,7.372 1.5116,7.0178 1.5321,6.6635 1.532,6.3093 1.532,6.0056 1.5116,5.7019 1.5321,5.3983 1.532,5.1283 1.5116,4.8923 1.532,4.6729 1.5321,4.5042 1.532,4.3523 1.5116,4.268 1.532,4.2174 1.5321,4.2343 1.5116,4.2849 1.532,4.3861 1.532,4.5211 1.5116,4.7066 1.5321,4.8416 1.532,4.9765 1.532,5.0272 1.5116,5.0103 1.5321,4.9259 1.532,4.7573 1.5116,4.5041 1.532,4.1837 1.5321,3.8126 1.5319,3.3739 1.5117,2.9522 1.532,2.581 1.532,2.2268 1.5116,1.9569 1.5321,1.7376 1.532,1.5688 1.532,1.4677 1.5116,1.4002 1.532,1.3495 1.5321,1.3328 1.5116,1.2989 1.532,1.2652 1.532,1.2315 1.5321,1.164 1.5116,1.0797 1.532,1.0122 1.532,0.9109 1.5116,0.8266 1.5321,0.7423 1.532,0.6917 1.532,0.641 1.5116,0.6242 1.5321,0.6073 1.532,0.641 1.5116,0.6411 1.532,0.6747 1.5321,0.7086 1.532,0.7254 1.5116,0.7422 3.0641,1.4846 1.5116,0.7254 1.532,0.6916 1.532,0.6579 1.5321,0.6242 1.5116,0.5736 1.532,0.5567 1.532,0.5061 1.5116,0.4723 1.5321,0.4219 1.532,0.4047 1.532,0.3373 1.5116,0.3036 1.5321,0.2699 1.532,0.2194 1.5116,0.1857 3.0641,0.3373 1.532,0.152 1.5116,0.1688 1.532,0.1857 1.5321,0.2026 1.5115,0.2362 1.5321,0.2868 1.532,0.3036 1.5116,0.3373 3.0641,0.7422 1.532,0.3879 1.5116,0.3882 1.532,0.3878 1.532,0.371 1.5117,0.3541 1.532,0.3373 1.532,0.3036 1.532,0.2699 1.5117,0.2531 1.532,0.2194 1.532,0.1688 1.5116,0.1689 1.532,0.1179 1.5321,0.101 1.532,0.084 1.5116,0.067 3.0641,0.067 1.5115,0.035 1.5321,0.017 h 1.532 l 1.5321,0.017 h 4.5756 l 1.5116,0.017 h 131.2644"
   id="path8272"
   style="stroke:#00fada;stroke-width:12.871;stroke-dasharray:none;stroke-opacity:1" /><g
   id="g2766"
   transform="matrix(1.2461258,0,0,1.3024663,-39.642403,-398.30933)"><ellipse
     style="fill:#00fada;fill-opacity:1;stroke:#00fada;stroke-width:3.3;stroke-opacity:1"
     id="path15523-5"
     cx="591.78589"
     cy="1601.8928"
     rx="68.967415"
     ry="64.812202" /><ellipse
     style="fill:#808080;fill-opacity:1;stroke:#808080;stroke-width:3.3;stroke-opacity:1"
     id="path15523-3"
     cx="557.08386"
     cy="1117.8263"
     rx="68.967415"
     ry="64.812202" /><ellipse
     style="fill:#808080;fill-opacity:1;stroke:#808080;stroke-width:3.3;stroke-opacity:1"
     id="path15523-6"
     cx="285.61035"
     cy="1122.2373"
     rx="68.967415"
     ry="64.812202" /><ellipse
     style="fill:#808080;fill-opacity:1;stroke:#808080;stroke-width:3.3;stroke-opacity:1"
     id="path15523-4"
     cx="754.86267"
     cy="1346.197"
     rx="68.967415"
     ry="64.812202" /><ellipse
     style="fill:#808080;fill-opacity:1;stroke:#808080;stroke-width:3.3;stroke-opacity:1"
     id="path15523"
     cx="435.27304"
     cy="1344.4957"
     rx="68.967415"
     ry="64.812202" /><path
     style="fill:#808080;fill-opacity:1;stroke:#808080;stroke-width:19.833;stroke-dasharray:none;stroke-opacity:1;marker-end:url(#Arrow4)"
     d="m 333.28981,1178.0314 66.58871,95.5698"
     id="path16413" /><path
     style="fill:#808080;fill-opacity:1;stroke:#808080;stroke-width:19.833;stroke-dasharray:none;stroke-opacity:1;marker-end:url(#Arrow4)"
     d="m 533.67319,1183.7223 -58.02235,93.2663"
     id="path16415" /><path
     style="fill:#808080;fill-opacity:1;stroke:#808080;stroke-width:19.833;stroke-dasharray:none;stroke-opacity:1;marker-end:url(#Arrow4)"
     d="m 490.82638,1396.2702 51.26261,134.427"
     id="path16417" /><path
     style="fill:#808080;fill-opacity:1;stroke:#808080;stroke-width:19.833;stroke-dasharray:none;stroke-opacity:1;marker-end:url(#Arrow4)"
     d="M 732.38546,1417.814 643.83136,1538.3"
     id="path16419" /></g><text
   xml:space="preserve"
   id="text17349"
   style="fill:#808080;stroke:#808080;font-size:96px;stroke-width:19.83300018;fill-opacity:1;stroke-opacity:1;stroke-dasharray:none;white-space:pre;shape-inside:url(#rect17351)" /><text
   xml:space="preserve"
   style="font-size:96px;fill:#36617b;fill-opacity:1;stroke:#36617b;stroke-width:4.535;stroke-dasharray:none;stroke-opacity:1"
   x="1644.3043"
   y="1728.6852"
   id="text3341"><tspan
     sodipodi:role="line"
     id="tspan3339"
     x="1644.3043"
     y="1728.6852">median</tspan></text><path
   style="fill:#fb6f00;fill-opacity:1;stroke:#00fada;stroke-width:12.4606;stroke-dasharray:none;stroke-opacity:1"
   d="m 1105.9255,2003.1435 v -61.7086 l 16.0342,-19.1442 c 24.1704,-28.8584 45.4246,-44.2782 61.0319,-44.2782 10.4835,0 18.1111,9.6695 50.935,64.5696 33.9982,56.8642 45.3357,69.8589 67.0814,76.8867 8.3116,2.6862 22.5306,8.9739 31.5978,13.9727 10.0532,5.5424 31.4954,12.9354 54.9528,18.947 21.1569,5.4221 39.7035,10.3469 41.2147,10.944 1.5112,0.5972 -70.5114,1.1834 -160.0501,1.3027 l -162.7977,0.2169 z"
   id="path15467" /><path
   style="fill:#fb6f00;fill-opacity:1;stroke:#00fada;stroke-width:12.4606;stroke-dasharray:none;stroke-opacity:1"
   d="m 1154.8756,2430.3174 c 11.4559,-2.7114 20.4527,-11.0181 32.7667,-30.2531 5.3211,-8.3116 13.797,-19.7042 18.8354,-25.317 20.1636,-22.4619 35.6845,-65.2175 49.3115,-135.839 14.8149,-76.7778 37.3866,-148.7866 43.525,-138.8545 1.0453,1.6913 6.8041,32.4832 12.7973,68.4266 5.9933,35.9434 12.9177,74.6249 15.3875,85.9589 4.9549,22.7385 37.045,122.0657 43.285,133.9788 6.967,13.301 21.8267,24.991 44.3025,34.8521 l 21.9297,9.6216 -145.625,-0.2091 c -80.0937,-0.1151 -141.5257,-1.1794 -136.5156,-2.3653 z"
   id="path15475" /><path
   style="fill:#ff0000;fill-opacity:1;stroke:#36617b;stroke-width:12.2922;stroke-dasharray:none;stroke-opacity:1;marker-end:url(#marker2628)"
   d="M 802.75386,1830.8135 904.8899,1972.4064"
   id="path2433" /><text
   xml:space="preserve"
   id="text3122"
   style="font-size:192px;white-space:pre;shape-inside:url(#rect3124);fill:#00fada;fill-opacity:1;stroke:#00fada;stroke-width:15;stroke-dasharray:none;stroke-opacity:1"><tspan
     x="657.30273"
     y="727.51439"
     id="tspan2177">Bayes</tspan></text></g>
</svg>
